<svg xmlns="http://www.w3.org/2000/svg" xmlns:xlink="http://www.w3.org/1999/xlink" width="1024" height="1024" viewBox="0 0 1024 1024">
  <defs>
    <clipPath id="a">
      <path d="M121.374,818.326C49.049,564.207,72.66,487.1,108.562,464.382c51.163-32.373,118.616,51.1,217.811,24.023,110.841-30.25,100.682-155.19,213.007-208.2C662.342,222.172,859.9,284.4,902.933,389.91c45.052,110.463-85.783,252.426-25.625,312.3,29.349,29.212,85.392,20.206,96.093,54.453,6.321,20.228-7.279,42.426-18.418,56.855Z" fill="none"/>
    </clipPath>
  </defs>
  <g>
    <path d="M121.374,818.326C49.049,564.207,72.66,487.1,108.562,464.382c51.163-32.373,118.616,51.1,217.811,24.023,110.841-30.25,100.682-155.19,213.007-208.2C662.342,222.172,859.9,284.4,902.933,389.91c45.052,110.463-85.783,252.426-25.625,312.3,29.349,29.212,85.392,20.206,96.093,54.453,6.321,20.228-7.279,42.426-18.418,56.855Z" fill="#ffeaea"/>
    <g clip-path="url(#a)">
      <g>
        <circle cx="135.064" cy="506.006" r="93.554" fill="none" stroke="#fff" stroke-miterlimit="10" stroke-width="12"/>
        <circle cx="121.173" cy="610.76" r="93.554" fill="none" stroke="#fff" stroke-miterlimit="10" stroke-width="12"/>
        <circle cx="621.83" cy="370.152" r="147.946" fill="none" stroke="#fff" stroke-miterlimit="10" stroke-width="12"/>
        <ellipse cx="614.842" cy="341.158" rx="119.278" ry="126.445" transform="translate(-77.502 218.36) rotate(-18.967)" fill="none" stroke="#fff" stroke-miterlimit="10" stroke-width="12"/>
        <ellipse cx="659.668" cy="225.879" rx="119.278" ry="126.445" transform="matrix(0.946, -0.325, 0.325, 0.946, -37.6, 226.671)" fill="none" stroke="#fff" stroke-miterlimit="10" stroke-width="12"/>
        <ellipse cx="851.717" cy="545.734" rx="119.278" ry="126.445" transform="translate(-131.133 306.457) rotate(-18.967)" fill="none" stroke="#fff" stroke-miterlimit="10" stroke-width="12"/>
        <ellipse cx="927.626" cy="535.073" rx="119.278" ry="126.445" transform="translate(-123.547 330.551) rotate(-18.967)" fill="none" stroke="#fff" stroke-miterlimit="10" stroke-width="12"/>
      </g>
    </g>
    <path d="M446.49,279.4c14.423,40.637-56.369,108.634-122.519,137.733-6.284,2.764-133.8,56.737-209.8-13.613C81.381,373.178,54.926,316.692,74.929,281c6.358-11.343,23.467-31.394,136.132-36.035C323.869,240.322,431.052,235.907,446.49,279.4Z" fill="#ffeaea"/>
    <g>
      <path d="M878.8,543.243c41.833,3.2,52.716,73.446,20.022,105.875s-35.845,57.78-36.1,67.438-19.643,50.392-42.636,58.856-36.544-32.463-9.1-77.863S822.437,538.938,878.8,543.243Z" fill="#4ac6bd"/>
      <path d="M812.922,795.768a1.839,1.839,0,0,0,.459.185,1.819,1.819,0,0,0,2.208-1.318c4.283-16.986,8.264-36.809,12.478-57.8,9.465-47.136,20.193-100.564,36.171-124.866a1.819,1.819,0,0,0-3.04-2c-16.365,24.893-26.7,76.369-36.7,126.149-4.205,20.942-8.177,40.722-12.438,57.621A1.818,1.818,0,0,0,812.922,795.768Z" fill="#fff"/>
      <path d="M974.466,626.569c33.326,28.6,22.007,100.054-18.762,110.692s-76.1-8.041-116.784,48.645L823.4,773.943s-8.676-38.065,28.358-71.2,34.6-15.673,68.625-52.787S961.31,615.28,974.466,626.569Z" fill="#50a5a0"/>
      <path d="M820.636,794.143c.038.022.076.042.117.061a1.818,1.818,0,0,0,2.426-.851c12.764-26.567,85.728-120.5,113.172-118.817a1.817,1.817,0,1,0,.222-3.628c-31.352-1.923-104.962,96.5-116.673,120.87A1.819,1.819,0,0,0,820.636,794.143Z" fill="#fff"/>
    </g>
    <g>
      <path d="M163.479,616.263c-29.935,2.287-37.722,52.556-14.328,75.761s25.65,41.346,25.83,48.257S189.038,776.34,205.49,782.4,231.641,759.167,212,726.68,203.809,613.182,163.479,616.263Z" fill="#4ac6bd"/>
      <path d="M210.618,796.963a1.317,1.317,0,0,1-.328.132,1.3,1.3,0,0,1-1.58-.943c-3.065-12.155-5.914-26.34-8.929-41.357-6.773-33.73-14.45-71.961-25.883-89.351a1.3,1.3,0,1,1,2.175-1.43c11.71,17.813,19.108,54.648,26.26,90.268,3.009,14.986,5.852,29.14,8.9,41.233A1.3,1.3,0,0,1,210.618,796.963Z" fill="#fff"/>
      <path d="M95.022,675.888c-23.847,20.462-15.748,71.6,13.425,79.209s54.452-5.754,83.568,34.809l11.109-8.561s6.208-27.237-20.292-50.947-24.756-11.216-49.106-37.774S104.436,667.81,95.022,675.888Z" fill="#50a5a0"/>
      <path d="M205.1,795.8c-.028.016-.055.03-.084.044a1.3,1.3,0,0,1-1.737-.609c-9.133-19.011-61.344-86.226-80.982-85.022a1.3,1.3,0,1,1-.159-2.6c22.435-1.376,75.108,69.05,83.488,86.492A1.3,1.3,0,0,1,205.1,795.8Z" fill="#fff"/>
    </g>
    <g>
      <path d="M224.869,326.648H680.923a45.839,45.839,0,0,1,45.839,45.839V755.064a9.609,9.609,0,0,1-9.609,9.609H188.639a9.609,9.609,0,0,1-9.609-9.609V372.487A45.839,45.839,0,0,1,224.869,326.648Z" fill="#c7c7e3"/>
      <path d="M188.639,749.459H840.178a19.512,19.512,0,0,1,19.512,19.512v22.635a19.512,19.512,0,0,1-19.512,19.512H220.86a41.83,41.83,0,0,1-41.83-41.83V759.068a9.609,9.609,0,0,1,9.609-9.609Z" fill="#c7c7e3"/>
    </g>
    <path d="M258.5,326.648H714.556a45.839,45.839,0,0,1,45.839,45.839V755.064a9.609,9.609,0,0,1-9.609,9.609H222.272a9.609,9.609,0,0,1-9.609-9.609V372.487A45.839,45.839,0,0,1,258.5,326.648Z" fill="#eeedff"/>
    <rect x="251.1" y="367.488" width="475.662" height="357.947" rx="23.509" fill="#b1b1db"/>
    <g>
      <path d="M341.4,626.211a9.848,9.848,0,0,1,0,18.113,15.918,15.918,0,0,1-6.582,1.256h-4.867v7.3h-7.9V624.955h12.766A15.918,15.918,0,0,1,341.4,626.211ZM338.01,638.3a3.743,3.743,0,0,0,1.236-3.012,3.805,3.805,0,0,0-1.236-3.031,5.447,5.447,0,0,0-3.671-1.078h-4.388v8.179h4.388A5.522,5.522,0,0,0,338.01,638.3Z" fill="#fff"/>
      <path d="M367.293,647.455h-11.81l-2.194,5.426H345.23l12.329-27.926h7.779l12.367,27.926h-8.218Zm-2.314-5.824-3.59-8.937-3.591,8.937Z" fill="#fff"/>
      <path d="M397.175,638.319h6.981v11.57a18.179,18.179,0,0,1-5.506,2.633,21.889,21.889,0,0,1-6.223.917,16.657,16.657,0,0,1-7.9-1.854,13.835,13.835,0,0,1-5.5-5.167,15.1,15.1,0,0,1,0-15,13.781,13.781,0,0,1,5.545-5.167,17.055,17.055,0,0,1,8.02-1.855,17.858,17.858,0,0,1,7.021,1.317A13.542,13.542,0,0,1,404.8,629.5l-5.027,4.549a8.865,8.865,0,0,0-6.783-3.112,7.51,7.51,0,0,0-7.978,7.979,8.429,8.429,0,0,0,1,4.129,7.147,7.147,0,0,0,2.793,2.833,8.174,8.174,0,0,0,4.108,1.016,10.075,10.075,0,0,0,4.27-.917Z" fill="#fff"/>
      <path d="M430.527,646.777v6.1H408.106V624.955h21.9v6.1H415.926v4.707h12.407v5.905H415.926v5.106Z" fill="#fff"/>
      <path d="M470.94,624.955v27.926h-6.5L452.109,638v14.881H444.37V624.955h6.5L463.2,639.836V624.955Z" fill="#fff"/>
      <path d="M481.573,651.564a14.278,14.278,0,0,1,0-25.293,17.83,17.83,0,0,1,15.918,0,14.277,14.277,0,0,1,0,25.293,17.83,17.83,0,0,1-15.918,0Zm11.789-5.665a7.173,7.173,0,0,0,2.713-2.812,9.215,9.215,0,0,0,0-8.338,7.189,7.189,0,0,0-2.713-2.813,7.855,7.855,0,0,0-7.66,0,7.182,7.182,0,0,0-2.713,2.813,9.215,9.215,0,0,0,0,8.338A7.166,7.166,0,0,0,485.7,645.9a7.855,7.855,0,0,0,7.66,0Z" fill="#fff"/>
      <path d="M513.669,631.219h-8.578v-6.264h25.014v6.264h-8.537v21.662h-7.9Z" fill="#fff"/>
      <path d="M550.412,631.059V637.2h12.327v6.1H550.412v9.574h-7.9V624.955h21.9v6.1Z" fill="#fff"/>
      <path d="M572.933,651.564a14.278,14.278,0,0,1,0-25.293,17.83,17.83,0,0,1,15.918,0,14.278,14.278,0,0,1,0,25.293,17.83,17.83,0,0,1-15.918,0Zm11.789-5.665a7.18,7.18,0,0,0,2.713-2.812,9.215,9.215,0,0,0,0-8.338,7.2,7.2,0,0,0-2.713-2.813,7.855,7.855,0,0,0-7.66,0,7.175,7.175,0,0,0-2.713,2.813,9.215,9.215,0,0,0,0,8.338,7.159,7.159,0,0,0,2.713,2.812,7.855,7.855,0,0,0,7.66,0Z" fill="#fff"/>
      <path d="M602.693,650.049q-3.45-3.39-3.45-9.615V624.955h7.9v15.239q0,6.7,5.306,6.7,5.266,0,5.267-6.7V624.955h7.779v15.479q0,6.224-3.451,9.615t-9.675,3.39Q606.146,653.439,602.693,650.049Z" fill="#fff"/>
      <path d="M656.334,624.955v27.926h-6.5L637.5,638v14.881h-7.739V624.955h6.5l12.327,14.881V624.955Z" fill="#fff"/>
      <path d="M660.842,624.955h13.205a18.5,18.5,0,0,1,8.139,1.715,12.929,12.929,0,0,1,5.5,4.867,14.911,14.911,0,0,1,0,14.762,12.922,12.922,0,0,1-5.5,4.867,18.487,18.487,0,0,1-8.139,1.715H660.842Zm12.886,21.623a8.1,8.1,0,0,0,5.764-2.035,8.361,8.361,0,0,0,0-11.25,8.092,8.092,0,0,0-5.764-2.035h-4.987v15.32Z" fill="#fff"/>
    </g>
    <g>
      <path d="M438.635,569.547H420.189v23.768H385.957V569.547H320.331v-22.88l55.693-77.51h36.361L361.835,541.7h25.186V520.594h33.168V541.7h18.446Z" fill="#fff"/>
      <path d="M467.368,588.171q-12.417-7.625-19.422-22.26t-7.005-34.675q0-20.041,7.005-34.676T467.368,474.3a56.281,56.281,0,0,1,56.581,0q12.413,7.628,19.422,22.259t7,34.676q0,20.045-7,34.675t-19.422,22.26a56.281,56.281,0,0,1-56.581,0Zm42.48-29.709q5.229-8.6,5.232-27.226t-5.232-27.226q-5.234-8.6-14.1-8.6-9.045,0-14.278,8.6t-5.232,27.226q0,18.624,5.232,27.226t14.278,8.6Q504.615,567.064,509.848,558.462Z" fill="#fff"/>
      <path d="M674.711,569.547H656.265v23.768H622.033V569.547H556.407v-22.88l55.693-77.51h36.361L597.911,541.7H623.1V520.594h33.168V541.7h18.446Z" fill="#fff"/>
    </g>
    <path d="M203.854,749.459H873.811a19.512,19.512,0,0,1,19.512,19.512v22.635a19.512,19.512,0,0,1-19.512,19.512H226.642a32.4,32.4,0,0,1-32.4-32.4V759.068A9.609,9.609,0,0,1,203.854,749.459Z" fill="#c7c7e3"/>
    <g>
      <g>
        <path d="M747.919,384.519c-.759-1.517-3.035-17.452,8.094-34.146s2.024-27.064,9.106-33.893,12.141-3.541,12.141-3.541a15.226,15.226,0,0,1,8.346-9.106c6.577-2.782,16.947-1.011,23.017,8.853s5.312,13.406,2.024,32.881,9.864,22.259,9.611,34.652,15.682,26.811,21.247,58.934-2.277,47.8-26.811,44.516S747.919,384.519,747.919,384.519Z" fill="#251138"/>
        <g>
          <g>
            <path d="M862.208,773.438,827.964,796.6a5.619,5.619,0,0,0-2.032,6.829h0a5.617,5.617,0,0,0,7.355,3l53.145-22.318L878,767.028Z" fill="#1c5276"/>
            <path d="M860.067,757.063h17.042a0,0,0,0,1,0,0v16.031a6.26,6.26,0,0,1-6.26,6.26h-4.522a6.26,6.26,0,0,1-6.26-6.26V757.063a0,0,0,0,1,0,0Z" transform="translate(-229.693 396.23) rotate(-22.78)" fill="#fb855f"/>
            <path d="M737.407,791.9,696.6,798.528a5.617,5.617,0,0,0-4.713,5.343h0a5.616,5.616,0,0,0,5.412,5.816l57.6,2.075-.473-19.048Z" fill="#1c5276"/>
            <path d="M736.873,778.686h17.042a0,0,0,0,1,0,0v16.031a6.26,6.26,0,0,1-6.26,6.26h-4.522a6.26,6.26,0,0,1-6.26-6.26V778.686a0,0,0,0,1,0,0Z" transform="translate(28.912 -26.318) rotate(2.063)" fill="#fb855f"/>
            <path d="M611.239,398.032s32.8,7.044,58.382,17.827a105.435,105.435,0,0,1,19.9,10.535c8.2,5.888,12.3,12.351,8.329,19.082a10.446,10.446,0,0,1-2.284,2.708c-.008,0-.016,0-.015.01a11.909,11.909,0,0,1-2.582,1.647.384.384,0,0,1-.069.032,18.769,18.769,0,0,1-6.226,1.544c-5.321.5-11.913-.487-19.036-2.384-28.232-7.5-64.885-29.168-64.885-29.168C599.562,406.932,611.239,398.032,611.239,398.032Z" fill="#ea6565"/>
            <path d="M763.442,410.666s-33.651,27.693-61.281,37.506c-9.228,3.282-17.778,4.568-24.186,2.171,0-.007-.01-.013-.016-.008a15.944,15.944,0,0,1-2.751-1.348.422.422,0,0,1-.063-.042,14.891,14.891,0,0,1-4.559-4.514,16.252,16.252,0,0,1-1.016-1.738c-2.687-5.258-.263-11.156,5.112-17.13,4.287-4.767,10.451-9.589,17.4-14.193,23.14-15.3,54.958-28.107,54.958-28.107C760.759,380.626,774.311,399.256,763.442,410.666Z" fill="#ea6565"/>
            <path d="M883.369,436.383a.109.109,0,0,1-.027-.041c-.466-.644-.933-1.253-1.421-1.808a13.45,13.45,0,0,0-6.409-4.373,10.7,10.7,0,0,0-2.663-.391c-6.148-.123-9.706,4.031-11.471,10.706-1.605,6.019-1.748,14.081-1.036,22.9,2.31,28.621,13.645,65.138,13.645,65.138s13.473,5.809,23.189-3.315c0,0,.965-45.067-7.066-73.256C888.341,445.7,886.124,440.3,883.369,436.383Z" fill="#ea6565"/>
            <path d="M889.263,451.93a.1.1,0,0,1,.01-.048,15.162,15.162,0,0,0,.28-2.283,18.467,18.467,0,0,0-1.419-7.627c-1.946-4.935-5.743-9.979-10.606-14.918-20.494-20.8-59.949-39.68-59.949-39.68-14.824-5.353-26.116,14.138-18.174,25.638,0,0,29.306,27.652,54.482,41.623,8.512,4.725,16.556,7.887,22.834,7.882,3.847,0,7.026-1.182,9.248-3.913A15.549,15.549,0,0,0,889.263,451.93Z" fill="#ea6565"/>
            <path d="M745.571,669.474h0a23.537,23.537,0,0,1-23.513-22.217c-2.919-52.8-4.2-106.891-2.965-146.564h51.534c-1.628,45.191-2.029,97.776-1.508,144.968A23.548,23.548,0,0,1,745.571,669.474Z" fill="#5f6386"/>
            <path d="M746.957,617.256h0a23.459,23.459,0,0,0-24.3,24c1.081,45.577,2.564,112.185,3.532,141.417l39.852,1.435c-.386-33.279,2.547-101.374,3.529-142.853A23.458,23.458,0,0,0,746.957,617.256Z" fill="#5f6386"/>
            <path d="M798.71,655.817h0A23.539,23.539,0,0,1,775.005,633.8c-3.376-52.775-5.129-106.851-4.236-146.532l51.532-.448c-1.236,45.2-1.18,97.79-.25,144.976A23.548,23.548,0,0,1,798.71,655.817Z" fill="#5f6386"/>
            <path d="M788.557,612.584h0A23.459,23.459,0,0,0,777.494,644.9c21.276,40.321,52.282,99.29,66.174,125.029l36.317-16.472c-15.174-29.622-42.89-91.89-60.493-129.461A23.458,23.458,0,0,0,788.557,612.584Z" fill="#5f6386"/>
            <path d="M719.093,500.693s1.319-104.592,30.16-119.481c16.534-8.535,50.754-6.218,68.2,5.575,17.611,11.9,5.173,113.906,5.173,113.906Z" fill="#ea6565"/>
            <path d="M875.252,523.42s-3.51,4.707-3.756,9.5.183,8.044-2.865,12.764,2.67,7.242,5.128,3.028,5.385-11.452,9.5-6.8,1.595,20.329,10.843,16.811c0,0,.624,7.272,3.8,6.641s2.655-7.225,2.655-7.225,7.706,4.132,3.361-12.378c0,0,4.146-.1,3.725-3.406-.672-5.289-6.858-15.5-13.895-21.891C882.31,510.07,875.252,523.42,875.252,523.42Z" fill="#fd8b66"/>
            <path d="M889.274,539.934c5.849,14.312,5.182,18.659,5.151,18.837l-.647-.114.323.057-.323-.055c.007-.042.633-4.422-5.112-18.477Z" fill="#e56542"/>
            <path d="M894.936,538.679c3.744,7.284,5.922,19.273,5.943,19.393l-.646.116c-.021-.119-2.182-12.013-5.881-19.209Z" fill="#e56542"/>
            <path d="M899.219,535.552c2.287,4.348,4.968,10,5,10.059l-.593.281c-.026-.056-2.7-5.7-4.983-10.035Z" fill="#e56542"/>
            <g>
              <path d="M612.588,400.04s-3.684-4.29-8.247-5.753-7.809-1.936-11.619-5.827-7.643.444-4.178,3.688,9.738,7.684,4.246,10.065-20.012-3.9-18.878,5.085c0,0-7.172-1.35-7.34,1.588s6.325,4.2,6.325,4.2-5.873,5.651,11.126,6.159c0,0-.919,3.645,2.376,4.14,5.27.791,16.64-1.948,24.528-6.426C623.748,409.679,612.588,400.04,612.588,400.04Z" fill="#fd8b66"/>
              <path d="M582.738,408.54c2.691,0,6.123-.141,10.466-.534l-.059-.653c-14.986,1.353-19.061-.338-19.1-.355l-.267.6C573.9,407.65,575.986,408.54,582.738,408.54Z" fill="#e56542"/>
              <path d="M583.624,413.925a57.9,57.9,0,0,0,9.4-.649l-.111-.647c-7.856,1.355-19.867.142-19.988.13l-.067.653C572.941,413.42,577.947,413.925,583.624,413.925Z" fill="#e56542"/>
              <path d="M584.07,419.569c.06-.009,6.174-.876,10.93-1.739l-.117-.646c-4.744.862-10.844,1.727-10.906,1.735Z" fill="#e56542"/>
            </g>
            <path d="M779.964,394.351c-10.909,0-15.882-12.744-12.951-15.675a10.33,10.33,0,0,0,2.058-3.188h.009a21.48,21.48,0,0,0,1.481-5.535l.008-.008,20.168-17.989c-1.089,11.454,3.813,19.5,5.591,25.222S792.371,394.351,779.964,394.351Z" fill="#fb855f"/>
            <path d="M787.2,365.5c-5.783,11.062-17.781,9.964-18.117,9.988a21.48,21.48,0,0,0,1.481-5.535l.008-.008C771.114,369.633,792.618,355.132,787.2,365.5Z" fill="#e56542"/>
            <path d="M808.832,327.184s1.034,10.439-11.975,23.775c-13.638,13.982-2.056-23.426-2.056-23.426Z" fill="#251138"/>
            <path d="M766.886,328.493s-.491,9.249-1.411,19.7c-1.315,14.936.459,26.493,14.941,23.837,24.324-4.462,15.3-44.528,15.3-44.528Z" fill="#fb855f"/>
            <path d="M729.362,418.532c.066-.254,6.711-25.423,13.393-31.02l-.844-1.006c-7,5.865-13.543,30.642-13.819,31.694Z" fill="#c45454"/>
            <rect x="679.323" y="420.162" width="1.312" height="14.681" transform="translate(-38.502 68.455) rotate(-5.605)" fill="#c45454"/>
            <rect x="858.249" y="453.446" width="13" height="1.312" transform="translate(-97.414 622.154) rotate(-37.613)" fill="#c45454"/>
            <polygon points="745.137 553.226 789.653 551.202 775.489 506.686 754.243 503.651 745.137 553.226" fill="#5f6386"/>
            <polygon points="772.399 531.622 772.508 530.314 761.047 529.359 764.505 501.202 763.203 501.042 759.579 530.553 772.399 531.622" fill="#251138"/>
            <circle cx="796.865" cy="352.229" r="8.284" fill="#fb855f"/>
            <polygon points="719.265 546.298 725.206 541.057 725.22 540.78 727.244 500.311 725.933 500.246 723.924 540.439 718.398 545.314 719.265 546.298" fill="#251138"/>
            <polygon points="820.975 550.802 821.626 549.663 814.259 545.453 812.996 503.143 811.684 503.182 812.97 546.228 820.975 550.802" fill="#251138"/>
            <polygon points="726.188 782.67 725.355 769.828 764.842 769.731 766.04 784.105 726.188 782.67" fill="#251138"/>
            <polygon points="836.434 756.259 843.668 769.924 879.985 753.452 872.603 739.783 836.434 756.259" fill="#251138"/>
            <path d="M780,401.289c15.13,0,19.917-10.688,24.109-23.564l-1.248-.407c-4.479,13.76-9.249,24.152-26.291,22.483-16.359-1.6-14.939-24.03-14.923-24.256l-1.308-.094c-.018.238-1.529,23.928,16.1,25.656Q778.306,401.29,780,401.289Z" fill="#c45454"/>
            <path d="M796.541,333.752s-3.269-6.6-9.93-3.664-9.371,6.862-13.324,5.872-6.4-7.467-6.4-7.467,2.645-22.359,24.638-20.222,16.925,21.24,16.925,21.24l-6.689,4.655Z" fill="#251138"/>
          </g>
          <circle cx="782.698" cy="344.766" r="1.728" fill="#8e3332"/>
          <circle cx="771.55" cy="343.548" r="1.728" fill="#8e3332"/>
          <path d="M774.454,355.915a5.22,5.22,0,0,0,2.154-.484l-.54-1.2c-1.8.815-3.366.1-3.755-.71-.344-.714.17-1.511,1.377-2.131a7.068,7.068,0,0,0,3.763-7.017l-1.3.189.649-.095-.65.093a5.644,5.644,0,0,1-3.064,5.663c-2.262,1.162-2.469,2.81-1.959,3.868A3.616,3.616,0,0,0,774.454,355.915Z" fill="#8e3332"/>
          <path d="M781.529,365.04l-9.636.266s.464-6.393,4.856-6.449S781.529,365.04,781.529,365.04Z" fill="#fff"/>
          <path d="M787.959,341.79l1.2-.539a6.555,6.555,0,0,0-5.371-3.926l-.067,1.31.034-.655-.037.655A5.246,5.246,0,0,1,787.959,341.79Z" fill="#8e3332"/>
          <path d="M775.868,338.515l.76-1.07c-2.825-2-6.532-1.152-6.686-1.115l.3,1.276C770.277,337.6,773.537,336.859,775.868,338.515Z" fill="#8e3332"/>
          <path d="M798.363,356.29l1.3-.2c-.463-3.008-3.467-4.026-4.992-4.144l-.1,1.308.05-.654-.052.654C794.7,353.266,797.944,353.565,798.363,356.29Z" fill="#8e3332"/>
        </g>
      </g>
      <circle cx="798.253" cy="644.338" r="15.036" fill="#494e6d"/>
      <circle cx="742.317" cy="646.264" r="15.675" fill="#494e6d"/>
    </g>
  </g>
</svg>
