<svg id="Layer_1" data-name="Layer 1" xmlns="http://www.w3.org/2000/svg" viewBox="0 0 1135.72 903.3"><defs><style>.cls-1{fill:#fff0e3;}.cls-14,.cls-2{fill:#fff;}.cls-2,.cls-3{stroke:#251138;}.cls-10,.cls-13,.cls-16,.cls-17,.cls-2,.cls-3{stroke-miterlimit:10;}.cls-13,.cls-2,.cls-3{stroke-width:2px;}.cls-10,.cls-13,.cls-16,.cls-17,.cls-3{fill:none;}.cls-4{fill:#fce0c3;}.cls-5{fill:#251138;}.cls-6{fill:#fb855f;}.cls-7{fill:#ffaa40;}.cls-8{fill:#494e6d;}.cls-9{fill:#fd8b66;}.cls-10{stroke:#e56542;}.cls-11{fill:#e56542;}.cls-12{fill:#8e3332;}.cls-13{stroke:#8e3332;}.cls-15{fill:#ff8e3d;}.cls-16{stroke:#fff;}.cls-17{stroke:#ff8e3d;stroke-width:5px;}</style></defs><path class="cls-1" d="M335.6,264.19,568.86,146.66a51.46,51.46,0,0,1,59,9L814.3,336.53A51.47,51.47,0,0,1,812.56,412L609.62,591.42a51.47,51.47,0,0,1-72.48-4.28L320.38,344.44A51.47,51.47,0,0,1,335.6,264.19Z"/><path class="cls-2" d="M818.41,782.81s82.1-25.27,87.16-60.63-39.16-10.11-39.16-10.11S908.09,614.81,879,598.39,838.62,702,838.62,702s-21.47-60.64-40.42-36.64S818.41,782.81,818.41,782.81Z"/><path class="cls-2" d="M876.83,602.81S865.46,689,849.36,718.39s-31,64.42-31,64.42"/><polyline class="cls-3" points="801.04 689.02 833.25 752.49 887.25 728.81"/><path class="cls-2" d="M816.31,784.5s38.59-57,24-81.65-29.53,13.36-29.53,13.36-22.82-81.69-49.21-77.36,26.78,85,26.78,85-43.87-27.08-43.65-2.57S816.31,784.5,816.31,784.5Z"/><path class="cls-2" d="M762.39,642.73s36.2,59.55,40.89,86,13,55.78,13,55.78"/><polyline class="cls-3" points="758.35 734.64 810.35 758.11 832.19 716.19"/><path class="cls-2" d="M344.73,781.86s82.1-25.26,87.15-60.63-39.15-10.11-39.15-10.11,41.68-97.26,12.63-113.68S364.94,701,364.94,701s-21.48-60.63-40.42-36.63S344.73,781.86,344.73,781.86Z"/><path class="cls-2" d="M403.15,601.86s-11.37,86.21-27.48,115.58-30.94,64.42-30.94,64.42"/><polyline class="cls-3" points="327.36 688.07 359.57 751.54 413.57 727.86"/><path class="cls-2" d="M342.63,783.55s38.59-57,24-81.65-29.53,13.36-29.53,13.36-22.82-81.69-49.21-77.35,26.77,85,26.77,85-43.86-27.09-43.64-2.58S342.63,783.55,342.63,783.55Z"/><path class="cls-2" d="M288.71,641.78s36.2,59.56,40.89,86,13,55.78,13,55.78"/><polyline class="cls-3" points="284.67 733.69 336.67 757.16 358.5 715.24"/><path class="cls-4" d="M247.25,787l636.63-1.9s-70.1-41.68-98.52-28.42S772.09,662,696.3,641.12s-108,79.58-108,79.58S594,679,554.2,680.91s-55,37.9-55,37.9S440.52,607,378,633.54s0,102.32,0,102.32-49.26-36-54.95-5.68-45.47,13.26-45.47,32.21S247.25,787,247.25,787Z"/><path class="cls-5" d="M699.94,696l-17.76,40.43a6,6,0,0,0,2.05,7.33h0a6,6,0,0,0,8.36-1.47l35.32-50.43L710.56,681.2Z"/><path class="cls-6" d="M693.63,675.72h18.21a0,0,0,0,1,0,0v14.71a9.1,9.1,0,0,1-9.1,9.1h0a9.1,9.1,0,0,1-9.1-9.1V675.72A0,0,0,0,1,693.63,675.72Z" transform="translate(-263.64 868.67) rotate(-54.99)"/><path class="cls-5" d="M512.44,764l-43.31,8.65a6,6,0,0,0-4.82,5.88h0a6,6,0,0,0,6,6h61.57l-1.23-20.31Z"/><path class="cls-6" d="M511.79,749.53H530a0,0,0,0,1,0,0v14.71a9.1,9.1,0,0,1-9.1,9.1h0a9.1,9.1,0,0,1-9.1-9.1V749.53a0,0,0,0,1,0,0Z"/><path class="cls-7" d="M505.88,238.46s-11.72,33.87-26.47,59.6c-4.39,7.66-9.05,14.61-13.75,19.73-7.31,7.93-14.69,11.44-21.31,6.35a10.92,10.92,0,0,1-2.58-2.77s0,0,0,0a12.55,12.55,0,0,1-1.41-3,.24.24,0,0,1,0-.07,20.31,20.31,0,0,1-.83-6.81c.17-5.7,2.07-12.57,5-19.87,11.61-29,39.34-65,39.34-65C498,224.92,505.88,238.46,505.88,238.46Z"/><path class="cls-7" d="M539.68,344.74s-46.55.91-76.2-9.16c-9.91-3.37-17.93-7.95-21.71-14.21,0,0,0,0,0,0a17.34,17.34,0,0,1-1.41-3,.24.24,0,0,1,0-.07,16.08,16.08,0,0,1-.83-6.81,21,21,0,0,1,.3-2.13c1.24-6.18,7.17-9.52,15.64-11,6.75-1.15,15.11-1.11,24-.36,29.53,2.5,64.68,12.85,64.68,12.85C557.33,317.79,556.35,342.38,539.68,344.74Z"/><path class="cls-7" d="M670.08,309.41a.09.09,0,0,0,0,0c-.18.83-.37,1.63-.61,2.38a14.42,14.42,0,0,1-4.4,7,11.53,11.53,0,0,1-2.44,1.53c-6,2.75-11.23.21-15.81-5.56-4.15-5.21-7.75-13-10.83-22-10-29-14.55-69.59-14.55-69.59s10.69-11.45,24.11-6.69c0,0,20.25,43.69,24.47,74.72C671,298.16,671.1,304.4,670.08,309.41Z"/><path class="cls-7" d="M670.08,309.41a.09.09,0,0,0,0,0,16.29,16.29,0,0,1-.61,2.38,19.69,19.69,0,0,1-4.4,7c-3.87,4.15-9.62,7.67-16.39,10.67-28.52,12.65-75.12,16-75.12,16-16.83-.48-20.42-24.28-8-32.6,0,0,40-16,70.45-20,10.31-1.36,19.55-1.35,25.78,1.11,3.83,1.51,6.52,3.93,7.66,7.52A16.56,16.56,0,0,1,670.08,309.41Z"/><path class="cls-8" d="M511.89,621.58h0a25.15,25.15,0,0,1-25.12-23.73c-3.12-56.41-4.49-114.19-3.17-156.57h55.06c-1.74,48.28-2.17,104.45-1.61,154.87A25.16,25.16,0,0,1,511.89,621.58Z"/><path class="cls-8" d="M511.87,573.09h0a25.05,25.05,0,0,0-25,26.55c2.9,48.61,7,119.67,9.21,150.84h42.6C537,715,537.48,642.15,536.93,597.83A25.05,25.05,0,0,0,511.87,573.09Z"/><path class="cls-8" d="M601,604.1h0a25.13,25.13,0,0,1-29.65-17.74c-15.25-54.39-29.09-110.51-37-152.17l53.75-11.92c8.74,47.51,20.48,102.45,31.93,151.55A25.16,25.16,0,0,1,601,604.1Z"/><path class="cls-8" d="M577.09,560h0a25.06,25.06,0,0,0-.61,36.48c34.88,34,85.79,83.72,108.37,105.31l31.5-28.68C691.18,648,642.53,593.86,612.29,561.46A25.07,25.07,0,0,0,577.09,560Z"/><path class="cls-7" d="M483.6,441.28S485,329.55,515.82,313.64c17.67-9.12,54.22-6.64,72.86,6,18.82,12.71,5.53,121.68,5.53,121.68Z"/><path class="cls-9" d="M624.85,227.71s-5.45-3.1-7.75-7.68-3.26-7.95-8.27-11.26-.49-8.23,3.72-5.16,10.18,8.9,12.21,2.59-7.14-20.58,3.41-21.1c0,0-2.5-7.39.88-8.13s5.69,5.94,5.69,5.94,5.77-7.35,8.59,10.67c0,0,4.1-1.68,5.11,1.73,1.61,5.47-.07,18.11-4.22,27.38C637.47,237.75,624.85,227.71,624.85,227.71Z"/><path class="cls-10" d="M628.17,185.1s2.56,3.85,3,20.45"/><path class="cls-10" d="M634.74,182.91s3,12.63,2.48,21.42"/><path class="cls-10" d="M643.33,193.58s-.2,6.68-.58,12"/><path class="cls-9" d="M503.58,239.63s5-3.35,7.17-8,3.06-8,7.68-11.56.52-8.17-3.36-4.91-9.42,9.33-11.23,3.2,6.74-20.72-2.94-20.68c0,0,2.36-7.43-.73-8s-5.28,6.16-5.28,6.16-5.23-7-8,11c0,0-3.75-1.45-4.7,2-1.52,5.49-.09,17.9,3.64,26.85C491.91,250.21,503.58,239.63,503.58,239.63Z"/><path class="cls-10" d="M500.9,197.68s-2.38,3.94-2.9,20.37"/><path class="cls-10" d="M494.89,195.85s-2.88,12.65-2.46,21.31"/><path class="cls-10" d="M486.92,206.85s.12,6.6.43,11.8"/><path class="cls-6" d="M548.63,327.68c-11.65,0-17-13.62-13.83-16.75a10.85,10.85,0,0,0,2.19-3.4h0a23,23,0,0,0,1.59-5.92h0l21.55-19.22c-1.16,12.23,4.07,20.82,6,26.94S561.88,327.68,548.63,327.68Z"/><path class="cls-11" d="M556.36,296.86c-6.18,11.81-19,10.64-19.36,10.67a23,23,0,0,0,1.59-5.92h0C539.18,301.27,562.15,285.78,556.36,296.86Z"/><path class="cls-12" d="M581.45,260.4s-.93,11.17-17.17,22.68c-17,12.06,2.36-25,2.36-25Z"/><path class="cls-6" d="M537.12,253.69s-2.3,9.63-5.28,20.43c-4.26,15.44-4.62,27.93,11.11,27.93,26.42,0,24.66-43.84,24.66-43.84Z"/><path class="cls-3" d="M493.9,353.33S501,326,508.43,319.84"/><line class="cls-3" x1="479.21" y1="298.4" x2="470.73" y2="311.6"/><line class="cls-3" x1="635.98" y1="292.86" x2="649.05" y2="297.57"/><polygon class="cls-8" points="511.43 497.4 558.98 495.24 543.85 447.68 521.15 444.44 511.43 497.4"/><polyline class="cls-3" points="531.42 441.74 527.64 472.54 540.61 473.62"/><circle class="cls-6" cx="564.05" cy="284.41" r="8.85"/><polyline class="cls-3" points="491.51 441.23 489.38 484.11 483.32 489.47"/><polyline class="cls-3" points="581.32 441.56 592.13 485.87 601.13 488.75"/><polygon class="cls-5" points="496.06 750.48 494.67 736.8 536.83 735.18 538.66 750.48 496.06 750.48"/><polygon class="cls-5" points="673.01 690.32 684.85 701.83 716.35 673.15 704.35 661.68 673.01 690.32"/><path class="cls-3" d="M528.36,307.54s-1.8,24.86,16.57,26.66,23.78-9,28.82-24.5"/><path class="cls-12" d="M567.27,264.94s-2.16-7.57-9.73-5.77-11.17,5.41-15.13,3.6-5.29-9.08-5.29-9.08,2.8-17.79,25.5-11.3,18,20.38,18,20.38l-7.93,3.61Z"/><circle class="cls-12" cx="551.55" cy="274.71" r="1.85"/><circle class="cls-12" cx="540.04" cy="272.17" r="1.85"/><path class="cls-13" d="M545.25,274.39a6.78,6.78,0,0,1-3.64,6.78c-4.31,2.21-.75,6.05,3.15,4.29"/><path class="cls-14" d="M536.42,290.56l8.92,1.35s-1.49,5.81-5.54,5.14S536.42,290.56,536.42,290.56Z"/><path class="cls-13" d="M551.73,269.67a6.34,6.34,0,0,1,5.13,3.78"/><path class="cls-13" d="M537.14,266.56s3.78-.9,6.57,1.08"/><path class="cls-13" d="M564.28,283.08s4.16.32,4.7,3.83"/><circle class="cls-8" cx="709.49" cy="511.11" r="13.96"/><circle class="cls-7" cx="342.94" cy="518.91" r="14.21"/><circle class="cls-4" cx="680.2" cy="414.7" r="14.21"/><circle class="cls-8" cx="423.67" cy="155.86" r="10.32"/><circle class="cls-7" cx="761.67" cy="273.86" r="27.47"/><circle class="cls-4" cx="381.78" cy="324.7" r="17.05"/><path class="cls-8" d="M274.59,350.54l23,11.3A9,9,0,0,1,299,377.05l-18.41,13.81a9,9,0,0,1-14.19-5.55l-4.6-25.11A9,9,0,0,1,274.59,350.54Z"/><path class="cls-7" d="M671.81,116.89l15.05,7.39a5.87,5.87,0,0,1,.94,10l-12,9a5.87,5.87,0,0,1-9.29-3.63l-3-16.42A5.87,5.87,0,0,1,671.81,116.89Z"/><path class="cls-8" d="M844.91,460.44l23,11.29A9,9,0,0,1,869.35,487l-18.41,13.8a9,9,0,0,1-14.19-5.55l-4.61-25.1A9,9,0,0,1,844.91,460.44Z"/><path class="cls-7" d="M259.13,617.43,246.64,631a6.44,6.44,0,0,1-10.76-2.14l-5.72-15.5a6.43,6.43,0,0,1,6.73-8.63l18.22,2A6.43,6.43,0,0,1,259.13,617.43Z"/><rect class="cls-14" x="468.03" y="222.61" width="3.37" height="13.8" rx="1.68" transform="translate(-46.85 149.08) rotate(-17.19)"/><rect class="cls-7" x="360.3" y="408.07" width="65.68" height="5.05" rx="2.53"/><rect class="cls-8" x="698.83" y="185.76" width="79.58" height="6.32" rx="3.16"/><rect class="cls-7" x="779.67" y="552.07" width="84.63" height="6.32" rx="3.16"/><rect class="cls-7" x="270.75" y="194.6" width="38.8" height="6.32" rx="3.16"/><rect class="cls-8" x="371.8" y="258.39" width="38.8" height="6.32" rx="3.16"/><rect class="cls-8" x="728.01" y="392.28" width="38.8" height="6.32" rx="3.16"/><path class="cls-15" d="M583.13,117,632,196.15s-61.71,31.43-88.49,7S583.13,117,583.13,117Z"/><polygon class="cls-15" points="543.54 188 457.38 241.56 462.44 248.07 549.36 197.31 543.54 188"/><line class="cls-16" x1="462.44" y1="248.07" x2="543.58" y2="200.69"/><polygon class="cls-15" points="448.07 221.76 473.68 262.51 465.53 267.17 442.25 225.25 448.07 221.76"/><path class="cls-17" d="M564.05,204s7.35,31.78,32.36,25.55,24.28-34.17,24.28-34.17"/><path class="cls-17" d="M544.28,174.55s-25.5-20.34-9.08-40.22,41.31-7.16,41.31-7.16"/></svg>